<svg xmlns="http://www.w3.org/2000/svg" width="99.908" height="99.908" viewBox="0 0 99.908 99.908">
  <path id="Icon_awesome-download" data-name="Icon awesome-download" d="M42.149,0H57.759a4.672,4.672,0,0,1,4.683,4.683V37.466H79.556a3.9,3.9,0,0,1,2.751,6.654l-29.68,29.7a3.781,3.781,0,0,1-5.327,0L17.582,44.12a3.9,3.9,0,0,1,2.751-6.654H37.466V4.683A4.672,4.672,0,0,1,42.149,0ZM99.908,73.37V95.225a4.672,4.672,0,0,1-4.683,4.683H4.683A4.672,4.672,0,0,1,0,95.225V73.37a4.672,4.672,0,0,1,4.683-4.683H33.309l9.562,9.562a10,10,0,0,0,14.167,0L66.6,68.687H95.225A4.672,4.672,0,0,1,99.908,73.37Zm-24.2,17.172a3.9,3.9,0,1,0-3.9,3.9A3.914,3.914,0,0,0,75.712,90.542Zm12.489,0a3.9,3.9,0,1,0-3.9,3.9A3.914,3.914,0,0,0,88.2,90.542Z" fill="#5b95cb"/>
</svg>
